<svg id="eAQGHBT2RJ31" xmlns="http://www.w3.org/2000/svg" xmlns:xlink="http://www.w3.org/1999/xlink" viewBox="0 0 238 238" shape-rendering="geometricPrecision" text-rendering="geometricPrecision"><style><![CDATA[#eAQGHBT2RJ33_ts {animation: eAQGHBT2RJ33_ts__ts 4000ms linear infinite normal forwards}@keyframes eAQGHBT2RJ33_ts__ts { 0% {transform: translate(118px,119px) scale(0.1,0.1);animation-timing-function: cubic-bezier(0.42,0,1,1)} 37.5% {transform: translate(118px,119px) scale(1,1)} 100% {transform: translate(118px,119px) scale(1,1)}} #eAQGHBT2RJ33 {animation: eAQGHBT2RJ33_c_o 4000ms linear infinite normal forwards}@keyframes eAQGHBT2RJ33_c_o { 0% {opacity: 0} 7.5% {opacity: 1} 32.5% {opacity: 1} 37.5% {opacity: 0} 100% {opacity: 0}} #eAQGHBT2RJ37_ts {animation: eAQGHBT2RJ37_ts__ts 4000ms linear infinite normal forwards}@keyframes eAQGHBT2RJ37_ts__ts { 0% {transform: translate(118px,119px) scale(0.1,0.1)} 12.5% {transform: translate(118px,119px) scale(0.1,0.1);animation-timing-function: cubic-bezier(0.42,0,1,1)} 37.5% {transform: translate(118px,119px) scale(1,1)} 100% {transform: translate(118px,119px) scale(1,1)}} #eAQGHBT2RJ37 {animation: eAQGHBT2RJ37_c_o 4000ms linear infinite normal forwards}@keyframes eAQGHBT2RJ37_c_o { 0% {opacity: 0} 12.5% {opacity: 0} 17.5% {opacity: 1} 32.5% {opacity: 1} 37.5% {opacity: 0} 100% {opacity: 0}} #eAQGHBT2RJ315_tr {animation: eAQGHBT2RJ315_tr__tr 4000ms linear infinite normal forwards}@keyframes eAQGHBT2RJ315_tr__tr { 0% {transform: translate(119px,119.502495px) rotate(0deg);animation-timing-function: cubic-bezier(0.42,0,1,1)} 62.5% {transform: translate(119px,119.502495px) rotate(300deg)} 75% {transform: translate(119px,119.502495px) rotate(340deg)} 87.5% {transform: translate(119px,119.502495px) rotate(360deg)} 100% {transform: translate(119px,119.502495px) rotate(360deg)}}]]></style><defs><radialGradient id="eAQGHBT2RJ34-fill" cx="0" cy="0" r="127.327678" spreadMethod="pad" gradientUnits="userSpaceOnUse" gradientTransform="matrix(1 0 0 1 0 0)"><stop id="eAQGHBT2RJ34-fill-0" offset="82%" stop-color="rgba(66,155,255,0)"/><stop id="eAQGHBT2RJ34-fill-1" offset="91%" stop-color="rgb(14,138,225)"/><stop id="eAQGHBT2RJ34-fill-2" offset="100%" stop-color="rgb(7,253,221)"/></radialGradient><linearGradient id="eAQGHBT2RJ35-fill" x1="134.672" y1="136.656" x2="53.984" y2="17.031" spreadMethod="pad" gradientUnits="userSpaceOnUse" gradientTransform="matrix(1 0 0 1 0 0)"><stop id="eAQGHBT2RJ35-fill-0" offset="0%" stop-color="rgba(116,191,255,0)"/><stop id="eAQGHBT2RJ35-fill-1" offset="22%" stop-color="rgba(116,191,255,0)"/><stop id="eAQGHBT2RJ35-fill-2" offset="100%" stop-color="rgb(116,191,255)"/></linearGradient><linearGradient id="eAQGHBT2RJ36-fill" x1="90.327" y1="71" x2="62.673" y2="30" spreadMethod="pad" gradientUnits="userSpaceOnUse" gradientTransform="matrix(1 0 0 1 0 0)"><stop id="eAQGHBT2RJ36-fill-0" offset="0%" stop-color="rgba(116,191,255,0)"/><stop id="eAQGHBT2RJ36-fill-1" offset="36%" stop-color="rgba(116,191,255,0)"/><stop id="eAQGHBT2RJ36-fill-2" offset="100%" stop-color="rgb(116,191,255)"/></linearGradient><radialGradient id="eAQGHBT2RJ38-fill" cx="0" cy="0" r="127.327678" spreadMethod="pad" gradientUnits="userSpaceOnUse" gradientTransform="matrix(1 0 0 1 0 0)"><stop id="eAQGHBT2RJ38-fill-0" offset="82%" stop-color="rgba(66,155,255,0)"/><stop id="eAQGHBT2RJ38-fill-1" offset="91%" stop-color="rgb(14,138,225)"/><stop id="eAQGHBT2RJ38-fill-2" offset="100%" stop-color="rgb(7,253,221)"/></radialGradient><linearGradient id="eAQGHBT2RJ39-fill" x1="134.672" y1="136.656" x2="53.984" y2="17.031" spreadMethod="pad" gradientUnits="userSpaceOnUse" gradientTransform="matrix(1 0 0 1 0 0)"><stop id="eAQGHBT2RJ39-fill-0" offset="0%" stop-color="rgba(116,191,255,0)"/><stop id="eAQGHBT2RJ39-fill-1" offset="22%" stop-color="rgba(116,191,255,0)"/><stop id="eAQGHBT2RJ39-fill-2" offset="100%" stop-color="rgb(116,191,255)"/></linearGradient><linearGradient id="eAQGHBT2RJ310-fill" x1="90.327" y1="71" x2="62.673" y2="30" spreadMethod="pad" gradientUnits="userSpaceOnUse" gradientTransform="matrix(1 0 0 1 0 0)"><stop id="eAQGHBT2RJ310-fill-0" offset="0%" stop-color="rgba(116,191,255,0)"/><stop id="eAQGHBT2RJ310-fill-1" offset="36%" stop-color="rgba(116,191,255,0)"/><stop id="eAQGHBT2RJ310-fill-2" offset="100%" stop-color="rgb(116,191,255)"/></linearGradient><radialGradient id="eAQGHBT2RJ312-fill" cx="0" cy="0" r="127.327678" spreadMethod="pad" gradientUnits="userSpaceOnUse" gradientTransform="matrix(1 0 0 1 0 0)"><stop id="eAQGHBT2RJ312-fill-0" offset="82%" stop-color="rgba(66,155,255,0)"/><stop id="eAQGHBT2RJ312-fill-1" offset="91%" stop-color="rgb(14,138,225)"/><stop id="eAQGHBT2RJ312-fill-2" offset="100%" stop-color="rgb(7,253,221)"/></radialGradient><linearGradient id="eAQGHBT2RJ313-fill" x1="134.672" y1="136.656" x2="53.984" y2="17.031" spreadMethod="pad" gradientUnits="userSpaceOnUse" gradientTransform="matrix(1 0 0 1 0 0)"><stop id="eAQGHBT2RJ313-fill-0" offset="0%" stop-color="rgba(116,191,255,0)"/><stop id="eAQGHBT2RJ313-fill-1" offset="22%" stop-color="rgba(116,191,255,0)"/><stop id="eAQGHBT2RJ313-fill-2" offset="100%" stop-color="rgb(116,191,255)"/></linearGradient><linearGradient id="eAQGHBT2RJ314-fill" x1="90.327" y1="71" x2="62.673" y2="30" spreadMethod="pad" gradientUnits="userSpaceOnUse" gradientTransform="matrix(1 0 0 1 0 0)"><stop id="eAQGHBT2RJ314-fill-0" offset="0%" stop-color="rgba(116,191,255,0)"/><stop id="eAQGHBT2RJ314-fill-1" offset="36%" stop-color="rgba(116,191,255,0)"/><stop id="eAQGHBT2RJ314-fill-2" offset="100%" stop-color="rgb(116,191,255)"/></linearGradient><radialGradient id="eAQGHBT2RJ316-fill" cx="0" cy="0" r="30.155" spreadMethod="pad" gradientUnits="userSpaceOnUse" gradientTransform="matrix(1 0 0 1 97.5 81)"><stop id="eAQGHBT2RJ316-fill-0" offset="0%" stop-color="rgba(116,191,255,0)"/><stop id="eAQGHBT2RJ316-fill-1" offset="45.4%" stop-color="rgba(116,191,255,0)"/><stop id="eAQGHBT2RJ316-fill-2" offset="100%" stop-color="rgb(116,191,255)"/></radialGradient><radialGradient id="eAQGHBT2RJ317-fill" cx="0" cy="0" r="30.155" spreadMethod="pad" gradientUnits="userSpaceOnUse" gradientTransform="matrix(1 0 0 1 142.5 81)"><stop id="eAQGHBT2RJ317-fill-0" offset="0%" stop-color="rgba(116,191,255,0)"/><stop id="eAQGHBT2RJ317-fill-1" offset="45.4%" stop-color="rgba(116,191,255,0)"/><stop id="eAQGHBT2RJ317-fill-2" offset="100%" stop-color="rgb(116,191,255)"/></radialGradient><radialGradient id="eAQGHBT2RJ318-fill" cx="0" cy="0" r="30.155" spreadMethod="pad" gradientUnits="userSpaceOnUse" gradientTransform="matrix(1 0 0 1 164.5 121)"><stop id="eAQGHBT2RJ318-fill-0" offset="0%" stop-color="rgba(116,191,255,0)"/><stop id="eAQGHBT2RJ318-fill-1" offset="45.4%" stop-color="rgba(116,191,255,0)"/><stop id="eAQGHBT2RJ318-fill-2" offset="100%" stop-color="rgb(116,191,255)"/></radialGradient><radialGradient id="eAQGHBT2RJ319-fill" cx="0" cy="0" r="30.155" spreadMethod="pad" gradientUnits="userSpaceOnUse" gradientTransform="matrix(1 0 0 1 142.5 160)"><stop id="eAQGHBT2RJ319-fill-0" offset="0%" stop-color="rgba(116,191,255,0)"/><stop id="eAQGHBT2RJ319-fill-1" offset="45.4%" stop-color="rgba(116,191,255,0)"/><stop id="eAQGHBT2RJ319-fill-2" offset="100%" stop-color="rgb(116,191,255)"/></radialGradient><radialGradient id="eAQGHBT2RJ320-fill" cx="0" cy="0" r="30.155" spreadMethod="pad" gradientUnits="userSpaceOnUse" gradientTransform="matrix(1 0 0 1 97.5 160)"><stop id="eAQGHBT2RJ320-fill-0" offset="0%" stop-color="rgba(116,191,255,0)"/><stop id="eAQGHBT2RJ320-fill-1" offset="45.4%" stop-color="rgba(116,191,255,0)"/><stop id="eAQGHBT2RJ320-fill-2" offset="100%" stop-color="rgb(116,191,255)"/></radialGradient><radialGradient id="eAQGHBT2RJ321-fill" cx="0" cy="0" r="30.155" spreadMethod="pad" gradientUnits="userSpaceOnUse" gradientTransform="matrix(1 0 0 1 75.5 121)"><stop id="eAQGHBT2RJ321-fill-0" offset="0%" stop-color="rgba(116,191,255,0)"/><stop id="eAQGHBT2RJ321-fill-1" offset="45.4%" stop-color="rgba(116,191,255,0)"/><stop id="eAQGHBT2RJ321-fill-2" offset="100%" stop-color="rgb(116,191,255)"/></radialGradient><radialGradient id="eAQGHBT2RJ322-fill" cx="0" cy="0" r="30.155" spreadMethod="pad" gradientUnits="userSpaceOnUse" gradientTransform="matrix(1 0 0 1 120.5 121)"><stop id="eAQGHBT2RJ322-fill-0" offset="0%" stop-color="rgba(116,191,255,0)"/><stop id="eAQGHBT2RJ322-fill-1" offset="45.4%" stop-color="rgba(116,191,255,0)"/><stop id="eAQGHBT2RJ322-fill-2" offset="100%" stop-color="rgb(116,191,255)"/></radialGradient></defs><g id="eAQGHBT2RJ33_ts" transform="translate(118,119) scale(0.1,0.1)"><g id="eAQGHBT2RJ33" transform="translate(-119,-119)" opacity="0"><circle id="eAQGHBT2RJ34" r="119" transform="matrix(1 0 0 1 119 119)" fill="url(#eAQGHBT2RJ34-fill)" stroke="none" stroke-width="1"/><path id="eAQGHBT2RJ35" d="M69.635,26.581C106.07,8.681,146.66,16.681,160.296,44.441C173.932,72.201,155.448,109.213,119.013,127.109C82.578,145.005,41.988,137.009,28.353,109.249C14.718,81.489,33.2,44.478,69.635,26.581Z" transform="matrix(1 0 0 1 -1 -1)" opacity="0.6" fill="url(#eAQGHBT2RJ35-fill)" fill-rule="evenodd" stroke="none" stroke-width="1"/><path id="eAQGHBT2RJ36" d="M67.913,33.273C80.583,27.139,94.7,29.88,99.44,39.394C104.18,48.908,97.754,61.594,85.084,67.727C72.414,73.86,58.3,71.121,53.557,61.607C48.814,52.093,55.243,39.407,67.913,33.273Z" transform="matrix(1 0 0 1 -1 -1)" opacity="0.6" fill="url(#eAQGHBT2RJ36-fill)" fill-rule="evenodd" stroke="none" stroke-width="1"/></g></g><g id="eAQGHBT2RJ37_ts" transform="translate(118,119) scale(0.1,0.1)"><g id="eAQGHBT2RJ37" transform="translate(-119,-119)" opacity="0"><circle id="eAQGHBT2RJ38" r="119" transform="matrix(1 0 0 1 119 119)" fill="url(#eAQGHBT2RJ38-fill)" stroke="none" stroke-width="1"/><path id="eAQGHBT2RJ39" d="M69.635,26.581C106.07,8.681,146.66,16.681,160.296,44.441C173.932,72.201,155.448,109.213,119.013,127.109C82.578,145.005,41.988,137.009,28.353,109.249C14.718,81.489,33.2,44.478,69.635,26.581Z" transform="matrix(1 0 0 1 -1 -1)" opacity="0.6" fill="url(#eAQGHBT2RJ39-fill)" fill-rule="evenodd" stroke="none" stroke-width="1"/><path id="eAQGHBT2RJ310" d="M67.913,33.273C80.583,27.139,94.7,29.88,99.44,39.394C104.18,48.908,97.754,61.594,85.084,67.727C72.414,73.86,58.3,71.121,53.557,61.607C48.814,52.093,55.243,39.407,67.913,33.273Z" transform="matrix(1 0 0 1 -1 -1)" opacity="0.6" fill="url(#eAQGHBT2RJ310-fill)" fill-rule="evenodd" stroke="none" stroke-width="1"/></g></g><g id="eAQGHBT2RJ311"><circle id="eAQGHBT2RJ312" r="119" transform="matrix(1 0 0 1 119 119)" fill="url(#eAQGHBT2RJ312-fill)" stroke="none" stroke-width="1"/><path id="eAQGHBT2RJ313" d="M69.635,26.581C106.07,8.681,146.66,16.681,160.296,44.441C173.932,72.201,155.448,109.213,119.013,127.109C82.578,145.005,41.988,137.009,28.353,109.249C14.718,81.489,33.2,44.478,69.635,26.581Z" transform="matrix(1 0 0 1 -1 -1)" opacity="0.6" fill="url(#eAQGHBT2RJ313-fill)" fill-rule="evenodd" stroke="none" stroke-width="1"/><path id="eAQGHBT2RJ314" d="M67.913,33.273C80.583,27.139,94.7,29.88,99.44,39.394C104.18,48.908,97.754,61.594,85.084,67.727C72.414,73.86,58.3,71.121,53.557,61.607C48.814,52.093,55.243,39.407,67.913,33.273Z" transform="matrix(1 0 0 1 -1 -1)" opacity="0.6" fill="url(#eAQGHBT2RJ314-fill)" fill-rule="evenodd" stroke="none" stroke-width="1"/></g><g id="eAQGHBT2RJ315_tr" transform="translate(119,119.502495) rotate(0)"><g id="eAQGHBT2RJ315" transform="translate(-119,-119.502495)"><path id="eAQGHBT2RJ316" d="M97.5,106L76,93.505L76,68.505L97.5,56.005L119,68.51L119,93.51Z" transform="matrix(1 0 0 1 -1 -1)" fill="url(#eAQGHBT2RJ316-fill)" fill-rule="evenodd" stroke="none" stroke-width="1"/><path id="eAQGHBT2RJ317" d="M142.5,106L121,93.505L121,68.505L142.5,56.005L164,68.51L164,93.51Z" transform="matrix(1 0 0 1 -1 -1)" fill="url(#eAQGHBT2RJ317-fill)" fill-rule="evenodd" stroke="none" stroke-width="1"/><path id="eAQGHBT2RJ318" d="M164.5,146L143,133.5L143,108.5L164.5,96L186,108.5L186,133.5Z" transform="matrix(1 0 0 1 -1 -1)" fill="url(#eAQGHBT2RJ318-fill)" fill-rule="evenodd" stroke="none" stroke-width="1"/><path id="eAQGHBT2RJ319" d="M142.5,185L121,172.5L121,147.5L142.5,135L164,147.5L164,172.5Z" transform="matrix(1 0 0 1 -1 -1)" fill="url(#eAQGHBT2RJ319-fill)" fill-rule="evenodd" stroke="none" stroke-width="1"/><path id="eAQGHBT2RJ320" d="M97.5,185L76,172.505L76,147.505L97.5,135.005L119,147.505L119,172.505Z" transform="matrix(1 0 0 1 -1 -1)" fill="url(#eAQGHBT2RJ320-fill)" fill-rule="evenodd" stroke="none" stroke-width="1"/><path id="eAQGHBT2RJ321" d="M75.5,146L54,133.505L54,108.505L75.5,96.005L97,108.505L97,133.505Z" transform="matrix(1 0 0 1 -1 -1)" fill="url(#eAQGHBT2RJ321-fill)" fill-rule="evenodd" stroke="none" stroke-width="1"/><path id="eAQGHBT2RJ322" d="M120.5,146L99,133.505L99,108.505L120.5,96.005L142,108.505L142,133.505Z" transform="matrix(1 0 0 1 -1 -1)" fill="url(#eAQGHBT2RJ322-fill)" fill-rule="evenodd" stroke="none" stroke-width="1"/></g></g></svg>