<?xml version="1.0" encoding="UTF-8"?>
<svg width="264px" height="264px" viewBox="0 0 264 264" version="1.1" xmlns="http://www.w3.org/2000/svg" xmlns:xlink="http://www.w3.org/1999/xlink">
    <!-- Generator: Sketch 54.1 (76490) - https://sketchapp.com -->
    <title>编组 6</title>
    <desc>Created with Sketch.</desc>
    <defs>
        <path d="M0,5.5 C0,8.53875 2.464,11 5.5,11 L5.5,11 C8.53875,11 11,8.53875 11,5.5 L11,5.5 C11,2.464 8.53875,0 5.5,0 L5.5,0 C2.464,0 0,2.464 0,5.5 L0,5.5 Z" id="path-1"></path>
        <path d="M0,5.5 C0,8.53875 2.464,11 5.5,11 L5.5,11 C8.53875,11 11,8.53875 11,5.5 L11,5.5 C11,2.464 8.53875,0 5.5,0 L5.5,0 C2.464,0 0,2.464 0,5.5 L0,5.5 Z" id="path-3"></path>
    </defs>
    <g id="页面-1" stroke="none" stroke-width="1" fill="none" fill-rule="evenodd">
        <g id="06备份-7" transform="translate(-4982.000000, -693.000000)">
            <g id="编组" transform="translate(4958.000000, 669.000000)">
                <g id="编组-6" transform="translate(24.000000, 24.000000)">
                    <g id="编组" transform="translate(218.000000, 221.000000)">
                        <mask id="mask-2" fill="white">
                            <use xlink:href="#path-1"></use>
                        </mask>
                        <g id="Clip-4"></g>
                        <polygon id="Fill-3" fill="#FFFFFF" mask="url(#mask-2)" points="-14 25 25 25 25 -14 -14 -14"></polygon>
                    </g>
                    <g id="编组备份-2" transform="translate(42.000000, 25.000000)">
                        <mask id="mask-4" fill="white">
                            <use xlink:href="#path-3"></use>
                        </mask>
                        <g id="Clip-4"></g>
                        <polygon id="Fill-3" fill="#FFFFFF" mask="url(#mask-4)" points="-14 25 25 25 25 -14 -14 -14"></polygon>
                    </g>
                    <circle id="椭圆形" stroke="#FFFFFF" stroke-width="2" opacity="0.2" cx="132" cy="132" r="131"></circle>
                </g>
            </g>
        </g>
    </g>
</svg>