<?xml version="1.0" encoding="UTF-8"?>
<svg width="25px" height="25px" viewBox="0 0 25 25" version="1.1" xmlns="http://www.w3.org/2000/svg" xmlns:xlink="http://www.w3.org/1999/xlink">
    <!-- Generator: Sketch 54.1 (76490) - https://sketchapp.com -->
    <title>编组备份 3</title>
    <desc>Created with Sketch.</desc>
    <defs>
        <path d="M0.948113788,7.41925808 C-0.982931414,12.0917446 0.0903504061,17.4689834 3.67011166,21.0423148 L3.67011166,21.0423148 C7.24987291,24.6156463 12.6313683,25.6781628 17.3016528,23.7363222 L17.3016528,23.7363222 C21.9719374,21.7944817 25.0107474,17.2276003 24.9999714,12.169332 L24.9999714,12.169332 C24.9978162,10.9796583 24.0301385,10.0162812 22.8404767,10.0184364 L22.8404767,10.0184364 C21.6508149,10.0205916 20.6874475,10.9882791 20.6896027,12.1779528 L20.6896027,12.1779528 C20.6960682,15.4905043 18.7068331,18.4840854 15.6464712,19.7556569 L15.6464712,19.7556569 C12.5861094,21.0293836 9.06022778,20.3332521 6.71538718,17.9926984 L6.71538718,17.9926984 C4.37054658,15.6521448 3.66580129,12.1283831 4.9330497,9.06583542 L4.9330497,9.06583542 C6.20029811,6.00328778 9.18738366,4.00541188 12.499902,4.00541188 L12.499902,4.00541188 C13.6895638,4.00541188 14.6550864,3.03987962 14.6550864,1.85020594 L14.6550864,1.85020594 C14.6550864,0.66053226 13.6895638,-0.305 12.499902,-0.305 L12.499902,-0.305 C7.44168432,-0.305 2.88346936,2.7446164 0.948113788,7.41925808" id="path-1"></path>
        <linearGradient x1="0.0864949261%" y1="49.8283613%" x2="100.000575%" y2="49.8283613%" id="linearGradient-3">
            <stop stop-color="#6FEEFC" offset="0%"></stop>
            <stop stop-color="#3F81F0" offset="100%"></stop>
        </linearGradient>
    </defs>
    <g id="页面-1" stroke="none" stroke-width="1" fill="none" fill-rule="evenodd">
        <g id="06备份-7" transform="translate(-5376.000000, -774.000000)">
            <g id="编组备份-3" transform="translate(5376.000000, 774.305000)">
                <mask id="mask-2" fill="white">
                    <use xlink:href="#path-1"></use>
                </mask>
                <g id="Clip-2"></g>
                <path d="M0.948113788,7.41925808 C-0.982931414,12.0917446 0.0903504061,17.4689834 3.67011166,21.0423148 L3.67011166,21.0423148 C7.24987291,24.6156463 12.6313683,25.6781628 17.3016528,23.7363222 L17.3016528,23.7363222 C21.9719374,21.7944817 25.0107474,17.2276003 24.9999714,12.169332 L24.9999714,12.169332 C24.9978162,10.9796583 24.0301385,10.0162812 22.8404767,10.0184364 L22.8404767,10.0184364 C21.6508149,10.0205916 20.6874475,10.9882791 20.6896027,12.1779528 L20.6896027,12.1779528 C20.6960682,15.4905043 18.7068331,18.4840854 15.6464712,19.7556569 L15.6464712,19.7556569 C12.5861094,21.0293836 9.06022778,20.3332521 6.71538718,17.9926984 L6.71538718,17.9926984 C4.37054658,15.6521448 3.66580129,12.1283831 4.9330497,9.06583542 L4.9330497,9.06583542 C6.20029811,6.00328778 9.18738366,4.00541188 12.499902,4.00541188 L12.499902,4.00541188 C13.6895638,4.00541188 14.6550864,3.03987962 14.6550864,1.85020594 L14.6550864,1.85020594 C14.6550864,0.66053226 13.6895638,-0.305 12.499902,-0.305 L12.499902,-0.305 C7.44168432,-0.305 2.88346936,2.7446164 0.948113788,7.41925808" id="Fill-1" fill="url(#linearGradient-3)" mask="url(#mask-2)"></path>
            </g>
        </g>
    </g>
</svg>
