<?xml version="1.0" encoding="UTF-8"?>
<svg width="25px" height="25px" viewBox="0 0 25 25" version="1.1" xmlns="http://www.w3.org/2000/svg" xmlns:xlink="http://www.w3.org/1999/xlink">
    <!-- Generator: Sketch 54.1 (76490) - https://sketchapp.com -->
    <title>编组备份 5</title>
    <desc>Created with Sketch.</desc>
    <defs>
        <path d="M0.948113788,7.72425808 C-0.982931414,12.3967446 0.0903504061,17.7739834 3.67011166,21.3473148 L3.67011166,21.3473148 C7.24987291,24.9206463 12.6313683,25.9831628 17.3016528,24.0413222 L17.3016528,24.0413222 C21.9719374,22.0994817 25.0107474,17.5326003 24.9999714,12.474332 L24.9999714,12.474332 C24.9978162,11.2846583 24.0301385,10.3212812 22.8404767,10.3234364 L22.8404767,10.3234364 C21.6508149,10.3255916 20.6874475,11.2932791 20.6896027,12.4829528 L20.6896027,12.4829528 C20.6960682,15.7955043 18.7068331,18.7890854 15.6464712,20.0606569 L15.6464712,20.0606569 C12.5861094,21.3343836 9.06022778,20.6382521 6.71538718,18.2976984 L6.71538718,18.2976984 C4.37054658,15.9571448 3.66580129,12.4333831 4.9330497,9.37083542 L4.9330497,9.37083542 C6.20029811,6.30828778 9.18738366,4.31041188 12.499902,4.31041188 L12.499902,4.31041188 C13.6895638,4.31041188 14.6550864,3.34487962 14.6550864,2.15520594 L14.6550864,2.15520594 C14.6550864,0.96553226 13.6895638,0 12.499902,0 L12.499902,0 C7.44168432,0 2.88346936,3.0496164 0.948113788,7.72425808" id="path-1"></path>
        <linearGradient x1="2.13794801%" y1="49.9964695%" x2="97.8749344%" y2="49.9964695%" id="linearGradient-3">
            <stop stop-color="#FFD300" offset="0%"></stop>
            <stop stop-color="#FFA42C" offset="100%"></stop>
        </linearGradient>
    </defs>
    <g id="页面-1" stroke="none" stroke-width="1" fill="none" fill-rule="evenodd">
        <g id="06备份-7" transform="translate(-5376.000000, -905.000000)">
            <g id="编组备份-5" transform="translate(5376.000000, 905.000000)">
                <mask id="mask-2" fill="white">
                    <use xlink:href="#path-1"></use>
                </mask>
                <g id="Clip-2"></g>
                <path d="M0.948113788,7.72425808 C-0.982931414,12.3967446 0.0903504061,17.7739834 3.67011166,21.3473148 L3.67011166,21.3473148 C7.24987291,24.9206463 12.6313683,25.9831628 17.3016528,24.0413222 L17.3016528,24.0413222 C21.9719374,22.0994817 25.0107474,17.5326003 24.9999714,12.474332 L24.9999714,12.474332 C24.9978162,11.2846583 24.0301385,10.3212812 22.8404767,10.3234364 L22.8404767,10.3234364 C21.6508149,10.3255916 20.6874475,11.2932791 20.6896027,12.4829528 L20.6896027,12.4829528 C20.6960682,15.7955043 18.7068331,18.7890854 15.6464712,20.0606569 L15.6464712,20.0606569 C12.5861094,21.3343836 9.06022778,20.6382521 6.71538718,18.2976984 L6.71538718,18.2976984 C4.37054658,15.9571448 3.66580129,12.4333831 4.9330497,9.37083542 L4.9330497,9.37083542 C6.20029811,6.30828778 9.18738366,4.31041188 12.499902,4.31041188 L12.499902,4.31041188 C13.6895638,4.31041188 14.6550864,3.34487962 14.6550864,2.15520594 L14.6550864,2.15520594 C14.6550864,0.96553226 13.6895638,0 12.499902,0 L12.499902,0 C7.44168432,0 2.88346936,3.0496164 0.948113788,7.72425808" id="Fill-1" fill="url(#linearGradient-3)" mask="url(#mask-2)"></path>
            </g>
        </g>
    </g>
</svg>
