<?xml version="1.0" encoding="UTF-8"?>
<svg width="230px" height="230px" viewBox="0 0 230 230" version="1.1" xmlns="http://www.w3.org/2000/svg" xmlns:xlink="http://www.w3.org/1999/xlink">
    <!-- Generator: Sketch 55.2 (78181) - https://sketchapp.com -->
    <title>cardBg-3-default</title>
    <desc>Created with Sketch.</desc>
    <defs>
        <linearGradient x1="50%" y1="0%" x2="50%" y2="100%" id="linearGradient-1">
            <stop stop-color="#FFFFFF" stop-opacity="0" offset="0%"></stop>
            <stop stop-color="#FFFFFF" stop-opacity="0.2" offset="47.8797279%"></stop>
            <stop stop-color="#FFFFFF" offset="100%"></stop>
        </linearGradient>
        <linearGradient x1="50%" y1="100%" x2="50%" y2="-2.48949813e-15%" id="linearGradient-2">
            <stop stop-color="#FFFFFF" offset="0%"></stop>
            <stop stop-color="#FFFFFF" stop-opacity="0" offset="100%"></stop>
        </linearGradient>
        <linearGradient x1="100%" y1="50%" x2="0%" y2="50%" id="linearGradient-3">
            <stop stop-color="#FFFFFF" offset="0%"></stop>
            <stop stop-color="#FFFFFF" stop-opacity="0" offset="100%"></stop>
        </linearGradient>
        <linearGradient x1="50%" y1="0%" x2="50%" y2="100%" id="linearGradient-4">
            <stop stop-color="#FFFFFF" stop-opacity="0" offset="0%"></stop>
            <stop stop-color="#FFFFFF" offset="65.6300407%"></stop>
            <stop stop-color="#FFFFFF" stop-opacity="0" offset="100%"></stop>
        </linearGradient>
        <linearGradient x1="50%" y1="100%" x2="50%" y2="3.061617e-15%" id="linearGradient-5">
            <stop stop-color="#FFFFFF" stop-opacity="0.5" offset="0%"></stop>
            <stop stop-color="#000000" offset="100%"></stop>
        </linearGradient>
        <linearGradient x1="50%" y1="0%" x2="50%" y2="100%" id="linearGradient-6">
            <stop stop-color="#FFFFFF" stop-opacity="0" offset="0%"></stop>
            <stop stop-color="#FFFFFF" stop-opacity="0.2" offset="47.8797279%"></stop>
            <stop stop-color="#FFFFFF" offset="100%"></stop>
        </linearGradient>
        <linearGradient x1="50%" y1="0%" x2="50%" y2="100%" id="linearGradient-7">
            <stop stop-color="#FFFFFF" stop-opacity="0" offset="0%"></stop>
            <stop stop-color="#FFFFFF" offset="42.135372%"></stop>
            <stop stop-color="#FFFFFF" offset="100%"></stop>
        </linearGradient>
        <linearGradient x1="0%" y1="32.1930281%" x2="100%" y2="67.8069719%" id="linearGradient-8">
            <stop stop-color="#FFFFFF" offset="0%"></stop>
            <stop stop-color="#FFFFFF" offset="59.6016017%"></stop>
            <stop stop-color="#FFFFFF" stop-opacity="0" offset="100%"></stop>
        </linearGradient>
        <linearGradient x1="50%" y1="0%" x2="50%" y2="100%" id="linearGradient-9">
            <stop stop-color="#FFFFFF" offset="0%"></stop>
            <stop stop-color="#FFFFFF" stop-opacity="0.199530118" offset="49.5811396%"></stop>
            <stop stop-color="#FFFFFF" stop-opacity="0" offset="100%"></stop>
        </linearGradient>
        <linearGradient x1="50%" y1="0%" x2="50%" y2="100%" id="linearGradient-10">
            <stop stop-color="#FFFFFF" stop-opacity="0" offset="0%"></stop>
            <stop stop-color="#FFFFFF" offset="34.7946241%"></stop>
            <stop stop-color="#FFFFFF" stop-opacity="0" offset="100%"></stop>
        </linearGradient>
        <linearGradient x1="50%" y1="-2.48949813e-15%" x2="50%" y2="100%" id="linearGradient-11">
            <stop stop-color="#FFFFFF" offset="0%"></stop>
            <stop stop-color="#FFFFFF" stop-opacity="0" offset="100%"></stop>
        </linearGradient>
        <linearGradient x1="100%" y1="50%" x2="0%" y2="50%" id="linearGradient-12">
            <stop stop-color="#FFFFFF" offset="0%"></stop>
            <stop stop-color="#FFFFFF" stop-opacity="0" offset="100%"></stop>
        </linearGradient>
        <linearGradient x1="50%" y1="0%" x2="50%" y2="100%" id="linearGradient-13">
            <stop stop-color="#FFFFFF" offset="0%"></stop>
            <stop stop-color="#FFFFFF" stop-opacity="0.199530118" offset="49.5811396%"></stop>
            <stop stop-color="#FFFFFF" stop-opacity="0" offset="100%"></stop>
        </linearGradient>
        <linearGradient x1="50%" y1="7.58928566%" x2="50%" y2="100%" id="linearGradient-14">
            <stop stop-color="#FFFFFF" offset="0%"></stop>
            <stop stop-color="#FFFFFF" stop-opacity="0.199530118" offset="49.5811396%"></stop>
            <stop stop-color="#FFFFFF" stop-opacity="0" offset="100%"></stop>
        </linearGradient>
        <linearGradient x1="50%" y1="0%" x2="50%" y2="100%" id="linearGradient-15">
            <stop stop-color="#FFFFFF" stop-opacity="0" offset="0%"></stop>
            <stop stop-color="#FFFFFF" offset="16.0884398%"></stop>
            <stop stop-color="#FFFFFF" stop-opacity="0" offset="100%"></stop>
        </linearGradient>
        <linearGradient x1="100%" y1="50%" x2="0%" y2="50%" id="linearGradient-16">
            <stop stop-color="#FFFFFF" stop-opacity="0" offset="0%"></stop>
            <stop stop-color="#FFFFFF" offset="62.0128206%"></stop>
            <stop stop-color="#FFFFFF" stop-opacity="0" offset="100%"></stop>
        </linearGradient>
        <linearGradient x1="-1.11022302e-14%" y1="50%" x2="100%" y2="50%" id="linearGradient-17">
            <stop stop-color="#FFFFFF" offset="0%"></stop>
            <stop stop-color="#FFFFFF" stop-opacity="0" offset="100%"></stop>
        </linearGradient>
        <linearGradient x1="-1.11022302e-14%" y1="50%" x2="100%" y2="50%" id="linearGradient-18">
            <stop stop-color="#FFFFFF" stop-opacity="0.5" offset="0%"></stop>
            <stop stop-color="#000000" offset="100%"></stop>
        </linearGradient>
    </defs>
    <g id="cardBg-3-default" stroke="none" stroke-width="1" fill="none" fill-rule="evenodd">
        <g transform="translate(0.000000, -0.000000)">
            <g id="I-110_110" transform="translate(120.000000, 120.000000)">
                <g id="Group-8" opacity="0.400000006">
                    <polygon id="Path" fill="#466CE8" points="102 0 102 76.4462891 110 85.5791016 110 110 0 110 0 0"></polygon>
                    <polygon id="Path" fill="#000000" opacity="0.900000036" points="102 0 102 76.4462891 110 85.5791016 110 110 0 110 0 0"></polygon>
                    <polygon id="Path" fill="url(#linearGradient-1)" style="mix-blend-mode: overlay;" points="110 85.5791016 110 110 0 110 0 0 102 0 102 76.4462891 110 85.5791016"></polygon>
                    <polygon id="Path-Copy-9" fill="url(#linearGradient-1)" style="mix-blend-mode: overlay;" points="110 85.5791016 110 110 0 110 0 0 102 0 102 76.4462891 110 85.5791016"></polygon>
                </g>
                <polygon id="Path" fill="#0075E1" fill-rule="nonzero" points="0 109 109 109 109 85.9551476 101 76.8223351 101 0 102 0 102 76.4462891 110 85.5791016 110 110 0 110"></polygon>
                <polygon id="Path-Copy-12" fill="#000000" fill-rule="nonzero" opacity="0.5" points="0 109 109 109 109 85.9551476 101 76.8223351 101 0 102 0 102 76.4462891 110 85.5791016 110 110 0 110"></polygon>
                <rect id="Rectangle" fill="url(#linearGradient-2)" style="mix-blend-mode: overlay;" x="109" y="95" width="1" height="15"></rect>
                <rect id="Rectangle" fill="url(#linearGradient-3)" style="mix-blend-mode: overlay;" x="82" y="109" width="28" height="1"></rect>
                <polygon id="Path" fill="url(#linearGradient-4)" style="mix-blend-mode: overlay;" points="109 95 109 85.9551476 101 76.8223351 101 34 102 34 102 76.4462891 110 85.5791016 110 95"></polygon>
                <polygon id="Path" fill="url(#linearGradient-4)" style="mix-blend-mode: overlay;" points="109 95 109 85.9551476 101 76.8223351 101 34 102 34 102 76.4462891 110 85.5791016 110 95"></polygon>
                <path d="M105,68.4605994 L110,74.1442346 L110,79 L105,73.3163648 L105,68.4605994 Z M105,57.7302997 L110,63.4139349 L110,68.2697003 L105,62.5860651 L105,57.7302997 Z M105,47 L110,52.6836352 L110,57.5394006 L105,51.8557654 L105,47 Z" id="Shape" fill="#466CE8"></path>
                <path d="M105,68.4605994 L110,74.1442346 L110,79 L105,73.3163648 L105,68.4605994 Z M105,57.7302997 L110,63.4139349 L110,68.2697003 L105,62.5860651 L105,57.7302997 Z M105,47 L110,52.6836352 L110,57.5394006 L105,51.8557654 L105,47 Z" id="Shape" fill="url(#linearGradient-5)" style="mix-blend-mode: overlay;"></path>
            </g>
            <g id="H-10_110" transform="translate(110.000000, 120.000000)">
                <g id="Group-9" opacity="0.400000006" transform="translate(-0.000000, 0.000000)">
                    <polygon id="Path" fill="#466CE8" points="10 110 1.77635684e-15 110 0 0 10 0 10 110"></polygon>
                    <polygon id="Path" fill="#000000" opacity="0.900000036" points="10 110 1.77635684e-15 110 0 0 10 0 10 110"></polygon>
                    <polygon id="Path" fill="url(#linearGradient-6)" style="mix-blend-mode: overlay;" points="10 110 -9.76996262e-15 110 4.4408921e-15 2.84217094e-14 10 0 10 110"></polygon>
                    <polygon id="Path-Copy-10" fill="url(#linearGradient-6)" style="mix-blend-mode: overlay;" points="10 110 -9.76996262e-15 110 4.4408921e-15 2.84217094e-14 10 0 10 110"></polygon>
                </g>
                <polygon id="Path" fill="#0075E1" fill-rule="nonzero" points="0 109 10 109 10 110 1.77635684e-15 110"></polygon>
                <polygon id="Path-Copy-11" fill="#000000" fill-rule="nonzero" opacity="0.5" points="0 109 10 109 10 110 1.77635684e-15 110"></polygon>
            </g>
            <g id="G-110_110" transform="translate(0.000000, 120.000000)">
                <g id="Group-7" opacity="0.400000006">
                    <polygon id="Path" fill="#466CE8" points="18.3691406 110 4.36933476e-17 90.71875 0 34.5791016 8.38085938 28.5791016 8.38085938 0 110 0 110 110 18.3691406 110"></polygon>
                    <polygon id="Path" fill="#000000" opacity="0.900000036" points="18.3691406 110 4.36933476e-17 90.71875 0 34.5791016 8.38085938 28.5791016 8.38085938 0 110 0 110 110 18.3691406 110"></polygon>
                    <polygon id="Path" fill="url(#linearGradient-1)" style="mix-blend-mode: overlay;" points="18.3691406 110 2.84654028e-14 90.71875 0 34.5791016 8.38085938 28.5791016 8.38085938 0 110 2.84217094e-14 110 110 18.3691406 110"></polygon>
                    <polygon id="Path-Copy-8" fill="url(#linearGradient-1)" style="mix-blend-mode: overlay;" points="18.3691406 110 2.84654028e-14 90.71875 0 34.5791016 8.38085938 28.5791016 8.38085938 0 110 2.84217094e-14 110 110 18.3691406 110"></polygon>
                </g>
                <polygon id="Path" fill="#0075E1" fill-rule="nonzero" points="9.38085938 5.68434189e-14 9.38085938 29.093037 1 35.093037 1 90.3186547 18.7976148 109 110 109 110 110 18.3691406 110 4.36933476e-17 90.71875 0 34.5791016 8.38085938 28.5791016 8.38085938 5.68434189e-14"></polygon>
                <polygon id="Path-Copy-13" fill="#000000" fill-rule="nonzero" opacity="0.5" points="9.38085938 5.68434189e-14 9.38085938 29.093037 1 35.093037 1 90.3186547 18.7976148 109 110 109 110 110 18.3691406 110 4.36933476e-17 90.71875 0 34.5791016 8.38085938 28.5791016 8.38085938 5.68434189e-14"></polygon>
                <polygon id="Path" fill="url(#linearGradient-7)" style="mix-blend-mode: overlay;" points="9.38085938 29.093037 1 35.093037 1 73 0 73 0 34.5791016 8.38085938 28.5791016 8.38085938 -1.26634814e-16 9.38085938 -1.26634814e-16"></polygon>
                <polygon id="Path" fill="url(#linearGradient-8)" style="mix-blend-mode: overlay;" points="1 73 1 90.3186547 18.7976148 109 62 109 62 110 18.3691406 110 1.37904587e-17 90.71875 0 73"></polygon>
                <polygon id="Rectangle" fill="#466CE8" points="9.27209698e-15 100 10 110 5.64453125 110 0 104.497314"></polygon>
            </g>
            <g id="F-110_10" transform="translate(120.000000, 110.000000)">
                <g id="Group-6" opacity="0.400000006" transform="translate(0.000000, 0.000000)">
                    <rect id="Rectangle" fill="#466CE8" opacity="0" x="0" y="-2.27373675e-13" width="110" height="10"></rect>
                    <polygon id="Path" fill="#466CE8" points="102 -2.30926389e-13 102 10 -2.84217094e-14 10 -2.84217094e-14 -2.30926389e-13"></polygon>
                    <polygon id="Path" fill="#000000" opacity="0.900000036" points="102 -2.30926389e-13 102 10 -2.84217094e-14 10 -2.84217094e-14 -2.30926389e-13"></polygon>
                </g>
                <polygon id="Path" fill="#0075E1" fill-rule="nonzero" points="101 10 101 6.21724894e-14 102 5.68434189e-14 102 10"></polygon>
                <polygon id="Path-Copy" fill="#000000" fill-rule="nonzero" opacity="0.5" points="101 10 101 6.21724894e-14 102 5.68434189e-14 102 10"></polygon>
            </g>
            <g id="E-10_10" transform="translate(110.000000, 110.000000)" opacity="0.400000006">
                <g id="Group-5">
                    <polygon id="Path" fill="#466CE8" points="0 10 0 5.32907052e-15 10 0 10 10 5.24416019e-16 10"></polygon>
                    <polygon id="Path" fill="#000000" opacity="0.900000036" points="0 10 0 5.32907052e-15 10 0 10 10 5.24416019e-16 10"></polygon>
                </g>
            </g>
            <g id="D-110_10" transform="translate(0.000000, 110.000000)">
                <g id="Group-4" opacity="0.400000006" transform="translate(0.000000, 0.000000)">
                    <rect id="Rectangle" fill="#466CE8" opacity="0" x="0" y="-2.27373675e-13" width="110" height="10"></rect>
                    <polygon id="Path" fill="#466CE8" points="8.38085938 10 8.38085938 -2.25597319e-13 110 -2.30926389e-13 110 10 8.38085938 10"></polygon>
                    <polygon id="Path" fill="#000000" opacity="0.900000036" points="8.38085938 10 8.38085938 -2.25597319e-13 110 -2.30926389e-13 110 10 8.38085938 10"></polygon>
                </g>
                <polygon id="Path" fill="#0075E1" fill-rule="nonzero" points="9.38085938 5.68434189e-14 9.38085938 10 8.38085938 10 8.38085938 6.21724894e-14 9.38085938 5.68434189e-14"></polygon>
                <polygon id="Path-Copy-7" fill="#000000" fill-rule="nonzero" opacity="0.5" points="9.38085938 5.68434189e-14 9.38085938 10 8.38085938 10 8.38085938 6.21724894e-14 9.38085938 5.68434189e-14"></polygon>
            </g>
            <g id="C-110_110" transform="translate(120.000000, 0.000000)">
                <g id="Group-3" opacity="0.400000006" transform="translate(0.000000, 0.000000)">
                    <rect id="Rectangle" fill="#466CE8" opacity="0" x="0" y="0" width="110" height="110"></rect>
                    <polygon id="Path" fill="#466CE8" points="0 8 20.6631844 8 26.0059536 13 110 13 110 60.3339844 102 69.2421875 102 110 0 110"></polygon>
                    <polygon id="Path" fill="#000000" opacity="0.900000036" points="0 8 20.6631844 8 26.0059536 13 110 13 110 60.3339844 102 69.2421875 102 110 0 110"></polygon>
                    <polygon id="Path" fill="url(#linearGradient-9)" style="mix-blend-mode: overlay;" points="0 8 20.6631844 8 26.0059536 13 110 13 110 60.3339844 102 69.2421875 102 110 0 110"></polygon>
                    <polygon id="Path" fill="url(#linearGradient-9)" style="mix-blend-mode: overlay;" points="0 8 20.6631844 8 26.0059536 13 110 13 110 60.3339844 102 69.2421875 102 110 0 110"></polygon>
                    <polygon id="Path" fill="url(#linearGradient-9)" style="mix-blend-mode: overlay;" points="0 8 20.6631844 8 26.0059536 13 110 13 110 60.3339844 102 69.2421875 102 110 0 110"></polygon>
                </g>
                <polygon id="Path" fill="#0075E1" fill-rule="nonzero" points="101 110 101 68.8590704 109 59.9508673 109 14 25.6110159 14 20.2682468 9 0 9 0 8 20.6631844 8 26.0059536 13 110 13 110 60.3339844 102 69.2421875 102 110 101 110"></polygon>
                <polygon id="Path-Copy-5" fill="#000000" fill-rule="nonzero" opacity="0.5" points="101 110 101 68.8590704 109 59.9508673 109 14 25.6110159 14 20.2682468 9 0 9 0 8 20.6631844 8 26.0059536 13 110 13 110 60.3339844 102 69.2421875 102 110 101 110"></polygon>
                <polygon id="Path" fill="url(#linearGradient-10)" style="mix-blend-mode: overlay;" points="101 110 101 68.8590704 109 59.9508673 109 47 110 47 110 60.3339844 102 69.2421875 102 110"></polygon>
                <rect id="Rectangle" fill="url(#linearGradient-11)" style="mix-blend-mode: overlay;" x="109" y="13" width="1" height="20"></rect>
                <rect id="Rectangle" fill="url(#linearGradient-12)" style="mix-blend-mode: overlay;" x="30" y="13" width="80" height="1"></rect>
            </g>
            <g id="B-10_110" transform="translate(110.000000, 0.000000)">
                <g id="Group-2" opacity="0.400000006">
                    <rect id="Rectangle" fill="#466CE8" opacity="0" x="0" y="0" width="10" height="110"></rect>
                    <polygon id="Path" fill="#466CE8" points="-9.76996262e-15 8 10 8 10 110 -9.76996262e-15 110"></polygon>
                    <polygon id="Path" fill="#000000" opacity="0.900000036" points="-9.76996262e-15 8 10 8 10 110 -9.76996262e-15 110"></polygon>
                    <polygon id="Path" fill="url(#linearGradient-13)" style="mix-blend-mode: overlay;" points="-8.8817842e-16 8 10 8 10 110 -1.50990331e-14 110"></polygon>
                    <polygon id="Path" fill="url(#linearGradient-13)" style="mix-blend-mode: overlay;" points="-8.8817842e-16 8 10 8 10 110 -1.50990331e-14 110"></polygon>
                    <polygon id="Path-Copy-4" fill="url(#linearGradient-13)" style="mix-blend-mode: overlay;" points="-8.8817842e-16 8 10 8 10 110 -1.50990331e-14 110"></polygon>
                </g>
                <polygon id="Path" fill="#0075E1" fill-rule="nonzero" points="10 9 1.0658141e-14 9 0 8 10 8 10 9"></polygon>
                <polygon id="Path-Copy-2" fill="#000000" fill-rule="nonzero" opacity="0.5" points="10 9 1.0658141e-14 9 0 8 10 8 10 9"></polygon>
            </g>
            <g id="A-110_110" transform="translate(0.000000, 0.000000)">
                <g id="Group" opacity="0.400000006">
                    <polygon id="Path" fill="#466CE8" points="19.8144531 3.08997619e-17 24.5654297 8 110 8 110 110 8.38085938 110 8.38085938 87.5078125 2.84217094e-14 81.5078125 0 45 8 41 8 24 2.84654028e-14 20 0 0"></polygon>
                    <polygon id="Path" fill="#000000" opacity="0.900000036" points="19.8144531 3.08997619e-17 24.5654297 8 110 8 110 110 8.38085938 110 8.38085938 87.5078125 2.84217094e-14 81.5078125 0 45 8 41 8 24 2.84654028e-14 20 0 0"></polygon>
                    <polygon id="Path" fill="url(#linearGradient-14)" style="mix-blend-mode: overlay;" points="19.8144531 0 24.5654297 8 110 8 110 110 8.38085938 110 8.38085938 87.5078125 2.84217094e-14 81.5078125 0 45 8 41 8 24 2.84654028e-14 20 0 0"></polygon>
                    <polygon id="Path" fill="url(#linearGradient-14)" style="mix-blend-mode: overlay;" points="19.8144531 0 24.5654297 8 110 8 110 110 8.38085938 110 8.38085938 87.5078125 2.84217094e-14 81.5078125 0 45 8 41 8 24 2.84654028e-14 20 0 0"></polygon>
                    <polygon id="Path-Copy-3" fill="url(#linearGradient-14)" style="mix-blend-mode: overlay;" points="19.8144531 0 24.5654297 8 110 8 110 110 8.38085938 110 8.38085938 87.5078125 2.84217094e-14 81.5078125 0 45 8 41 8 24 2.84654028e-14 20 0 0"></polygon>
                </g>
                <polygon id="Path" fill="#0075E1" fill-rule="nonzero" points="9.38085938 110 8.38085938 110 8.38085938 87.5078125 2.84217094e-14 81.5078125 0 45 8 41 8 24 2.84654028e-14 20 0 0 19.8144531 0 24.5654297 8 110 8 110 9 23.9962523 9 19.2452757 1 1 1 1 19.381966 9 23.381966 9 41.618034 1 45.618034 1 80.993877 9.38085938 86.993877"></polygon>
                <polygon id="Path-Copy-6" fill="#000000" fill-rule="nonzero" opacity="0.5" points="9.38085938 110 8.38085938 110 8.38085938 87.5078125 2.84217094e-14 81.5078125 0 45 8 41 8 24 2.84654028e-14 20 0 0 19.8144531 0 24.5654297 8 110 8 110 9 23.9962523 9 19.2452757 1 1 1 1 19.381966 9 23.381966 9 41.618034 1 45.618034 1 80.993877 9.38085938 86.993877"></polygon>
                <polygon id="Path" fill="url(#linearGradient-15)" style="mix-blend-mode: overlay;" points="2.23606798 20 9 23.381966 9 41.618034 1 45.618034 1 81 0 81 0 45 8 41 8 24 0 20"></polygon>
                <polygon id="Path-Copy-24" fill="url(#linearGradient-15)" style="mix-blend-mode: overlay;" points="2.23606798 20 9 23.381966 9 41.618034 1 45.618034 1 81 0 81 0 45 8 41 8 24 0 20"></polygon>
                <polygon id="Path" fill="url(#linearGradient-16)" style="mix-blend-mode: overlay;" points="23.9962523 9 19.2452757 1 19 1 19 0 19.8144531 3.08997619e-17 24.5654297 8 110 8 110 9"></polygon>
                <rect id="Rectangle-Copy-10" fill="url(#linearGradient-17)" style="mix-blend-mode: overlay;" x="0" y="0" width="20" height="1"></rect>
                <rect id="Rectangle-Copy-10" fill="url(#linearGradient-17)" style="mix-blend-mode: overlay;" transform="translate(0.500000, 10.000000) rotate(-270.000000) translate(-0.500000, -10.000000) " x="-9.5" y="9.5" width="20" height="1"></rect>
                <polygon id="Rectangle-Copy-47" fill="#466CE8" points="-4.4408921e-16 26 4 28 4 36 -4.4408921e-16 38"></polygon>
                <polygon id="Rectangle-Copy-49" fill="#FFFFFF" style="mix-blend-mode: overlay;" points="-4.4408921e-16 26 4 28 4 36 -4.4408921e-16 38"></polygon>
                <path d="M25,0 L32.3647871,0 L35,5 L27.6352129,5 L25,0 Z M47,0 L54.3647871,0 L57,5 L49.6352129,5 L47,0 Z M36,0 L43.3647871,0 L46,5 L38.6352129,5 L36,0 Z" id="Shape" fill="#466CE8"></path>
                <path d="M25,0 L32.3647871,0 L35,5 L27.6352129,5 L25,0 Z M47,0 L54.3647871,0 L57,5 L49.6352129,5 L47,0 Z M36,0 L43.3647871,0 L46,5 L38.6352129,5 L36,0 Z" id="Shape" fill="url(#linearGradient-18)" style="mix-blend-mode: overlay;"></path>
            </g>
        </g>
    </g>
</svg>