<?xml version="1.0" encoding="UTF-8"?>
<svg version="1.1" xmlns="http://www.w3.org/2000/svg" xmlns:xlink="http://www.w3.org/1999/xlink" width="100%" height="100%" class="sti-panel-bg">
<defs>
<linearGradient id="panel_linear_bg_577303235795" gradientUnits="userSpaceOnUse" x1="0" y1="0" x2="0" y2="100%">
<stop offset="0" stop-color="#143251" stop-opacity="0.8"></stop><stop offset="1" stop-color="#052036" stop-opacity="0.8"></stop></linearGradient></defs><g transform="translate(0,0)"><g shape-rendering="crispEdges"><g transform="translate(2,2)"><polygon points="5,0,952,0,956,4,956,461,952,465,5,465,0,460,0,5" fill="rgba(16,29,45,0.5)" stroke-width="1" stroke="rgba(39,166,221,0.5)"></polygon><polygon points="8,6,948,6,950,8,950,457,948,459,8,459,6,457,6,8" fill="url(#panel_linear_bg_577303235795)" stroke-width="1" stroke="rgba(22,92,129,0.5)"></polygon></g></g><g transform="translate(0,0)"><path d="M12.488,1.949l0,-1.918l-6.325,0l-6.268,6.268l0,6.078l1.899,0l0,-5.319l5.128,-5.128l5.566,0.019Z" fill="#27A6DD" stroke-width="0"></path></g><g transform="translate(960,0)rotate(90)"><path d="M12.488,1.949l0,-1.918l-6.325,0l-6.268,6.268l0,6.078l1.899,0l0,-5.319l5.128,-5.128l5.566,0.019Z" fill="#27A6DD" stroke-width="0"></path></g><g transform="translate(960,469)rotate(180)"><path d="M12.488,1.949l0,-1.918l-6.325,0l-6.268,6.268l0,6.078l1.899,0l0,-5.319l5.128,-5.128l5.566,0.019Z" fill="#27A6DD" stroke-width="0"></path></g><g transform="translate(0,469)rotate(-90)"><path d="M12.488,1.949l0,-1.918l-6.325,0l-6.268,6.268l0,6.078l1.899,0l0,-5.319l5.128,-5.128l5.566,0.019Z" fill="#27A6DD" stroke-width="0"></path></g></g></svg>